<svg width="692" height="56" viewBox="0 0 692 56" fill="none" xmlns="http://www.w3.org/2000/svg">
<g filter="url(#filter0_dddd_307_99)">
<rect width="692" height="56" transform="translate(326 8)" fill="#1C1C21"/>
<g filter="url(#filter1_f_307_99)">
<path d="M686.513 48.6331C687.013 48.0196 686.562 47.1398 685.77 47.1268C675.664 46.9604 667.212 47.1472 656.758 47.7832C655.967 47.8314 655.555 48.7311 656.083 49.3217C659.746 53.4201 665.074 56 671.004 56C677.26 56 682.845 53.1291 686.513 48.6331Z" stroke="#4C4CFF" stroke-linecap="round" stroke-linejoin="round"/>
<path d="M653.643 26.0579C653.252 26.7378 653.827 27.5294 654.606 27.436C666.173 26.048 674.698 25.6341 686.788 26.3703C687.575 26.4182 688.104 25.5873 687.668 24.9313C684.083 19.5476 677.958 16 671.004 16C663.576 16 657.093 20.048 653.643 26.0579Z" stroke="#4C4CFF" stroke-linecap="round" stroke-linejoin="round"/>
</g>
<g filter="url(#filter2_f_307_99)">
<path d="M686.513 48.6331C687.013 48.0196 686.562 47.1398 685.77 47.1268C675.664 46.9604 667.212 47.1472 656.758 47.7832C655.967 47.8314 655.555 48.7311 656.083 49.3217C659.746 53.4201 665.074 56 671.004 56C677.26 56 682.845 53.1291 686.513 48.6331Z" stroke="#4C4CFF" stroke-linecap="round" stroke-linejoin="round"/>
<path d="M653.643 26.0579C653.252 26.7378 653.827 27.5294 654.606 27.436C666.173 26.048 674.698 25.6341 686.788 26.3703C687.575 26.4182 688.104 25.5873 687.668 24.9313C684.083 19.5476 677.958 16 671.004 16C663.576 16 657.093 20.048 653.643 26.0579Z" stroke="#4C4CFF" stroke-linecap="round" stroke-linejoin="round"/>
</g>
<path d="M686.513 48.6331C687.013 48.0196 686.562 47.1398 685.77 47.1268C675.664 46.9604 667.212 47.1472 656.758 47.7832C655.967 47.8314 655.555 48.7311 656.083 49.3217C659.746 53.4201 665.074 56 671.004 56C677.26 56 682.845 53.1291 686.513 48.6331Z" stroke="#4C4CFF" stroke-linecap="round" stroke-linejoin="round"/>
<path d="M653.643 26.0579C653.252 26.7378 653.827 27.5294 654.606 27.436C666.173 26.048 674.698 25.6341 686.788 26.3703C687.575 26.4182 688.104 25.5873 687.668 24.9313C684.083 19.5476 677.958 16 671.004 16C663.576 16 657.093 20.048 653.643 26.0579Z" stroke="#4C4CFF" stroke-linecap="round" stroke-linejoin="round"/>
<path d="M686.513 48.6331C687.013 48.0196 686.562 47.1398 685.77 47.1268C675.664 46.9604 667.212 47.1472 656.758 47.7832C655.967 47.8314 655.555 48.7311 656.083 49.3217C659.746 53.4201 665.074 56 671.004 56C677.26 56 682.845 53.1291 686.513 48.6331Z" stroke="white" stroke-width="0.5" stroke-linecap="round" stroke-linejoin="round"/>
<path d="M653.643 26.0579C653.252 26.7378 653.827 27.5294 654.606 27.436C666.173 26.048 674.698 25.6341 686.788 26.3703C687.575 26.4182 688.104 25.5873 687.668 24.9313C684.083 19.5476 677.958 16 671.004 16C663.576 16 657.093 20.048 653.643 26.0579Z" stroke="white" stroke-width="0.5" stroke-linecap="round" stroke-linejoin="round"/>
<g filter="url(#filter3_f_307_99)">
<path d="M690.859 38.4656C690.988 37.4133 690.172 36.5115 689.115 36.4264C676.235 35.3883 666.184 35.2251 652.89 35.9245C651.831 35.9802 650.99 36.8596 651.089 37.9156C651.23 39.4145 651.537 40.8654 651.991 42.2496C652.253 43.0473 653.032 43.5408 653.871 43.5118C666.383 43.0783 676.06 43.0468 688.196 43.3747C689.035 43.3973 689.811 42.8976 690.066 42.0975C690.439 40.9298 690.707 39.7155 690.859 38.4656Z" stroke="#E33CD5" stroke-linecap="round" stroke-linejoin="round"/>
</g>
<g filter="url(#filter4_f_307_99)">
<path d="M690.859 38.4656C690.988 37.4133 690.172 36.5115 689.115 36.4264C676.235 35.3883 666.184 35.2251 652.89 35.9245C651.831 35.9802 650.99 36.8596 651.089 37.9156C651.23 39.4145 651.537 40.8654 651.991 42.2496C652.253 43.0473 653.032 43.5408 653.871 43.5118C666.383 43.0783 676.06 43.0468 688.196 43.3747C689.035 43.3973 689.811 42.8976 690.066 42.0975C690.439 40.9298 690.707 39.7155 690.859 38.4656Z" stroke="#E33CD5" stroke-linecap="round" stroke-linejoin="round"/>
</g>
<path d="M690.859 38.4656C690.988 37.4133 690.172 36.5115 689.115 36.4264C676.235 35.3883 666.184 35.2251 652.89 35.9245C651.831 35.9802 650.99 36.8596 651.089 37.9156C651.23 39.4145 651.537 40.8654 651.991 42.2496C652.253 43.0473 653.032 43.5408 653.871 43.5118C666.383 43.0783 676.06 43.0468 688.196 43.3747C689.035 43.3973 689.811 42.8976 690.066 42.0975C690.439 40.9298 690.707 39.7155 690.859 38.4656Z" stroke="#E33CD5" stroke-linecap="round" stroke-linejoin="round"/>
<path d="M690.859 38.4656C690.988 37.4133 690.172 36.5115 689.115 36.4264C676.235 35.3883 666.184 35.2251 652.89 35.9245C651.831 35.9802 650.99 36.8596 651.089 37.9156C651.23 39.4145 651.537 40.8654 651.991 42.2496C652.253 43.0473 653.032 43.5408 653.871 43.5118C666.383 43.0783 676.06 43.0468 688.196 43.3747C689.035 43.3973 689.811 42.8976 690.066 42.0975C690.439 40.9298 690.707 39.7155 690.859 38.4656Z" stroke="white" stroke-width="0.5" stroke-linecap="round" stroke-linejoin="round"/>
<g filter="url(#filter5_f_307_99)">
<path d="M651 31.5C653.667 29.5 656.333 29.5 659 31.5C661.667 33.5 664.333 33.5 667 31.5C669.667 29.5 672.333 29.5 675 31.5C677.667 33.5 680.333 33.5 683 31.5C685.667 29.5 688.333 29.5 691 31.5" stroke="#00CCCC" stroke-linecap="round" stroke-linejoin="round"/>
</g>
<g filter="url(#filter6_f_307_99)">
<path d="M651 31.5C653.667 29.5 656.333 29.5 659 31.5C661.667 33.5 664.333 33.5 667 31.5C669.667 29.5 672.333 29.5 675 31.5C677.667 33.5 680.333 33.5 683 31.5C685.667 29.5 688.333 29.5 691 31.5" stroke="#00CCCC" stroke-linecap="round" stroke-linejoin="round"/>
</g>
<path d="M651 31.5C653.667 29.5 656.333 29.5 659 31.5C661.667 33.5 664.333 33.5 667 31.5C669.667 29.5 672.333 29.5 675 31.5C677.667 33.5 680.333 33.5 683 31.5C685.667 29.5 688.333 29.5 691 31.5" stroke="#00CCCC" stroke-linecap="round" stroke-linejoin="round"/>
<path d="M651 31.5C653.667 29.5 656.333 29.5 659 31.5C661.667 33.5 664.333 33.5 667 31.5C669.667 29.5 672.333 29.5 675 31.5C677.667 33.5 680.333 33.5 683 31.5C685.667 29.5 688.333 29.5 691 31.5" stroke="white" stroke-width="0.5" stroke-linecap="round" stroke-linejoin="round"/>
<g filter="url(#filter7_f_307_99)">
<ellipse cx="1" cy="0.75" rx="1" ry="0.75" transform="matrix(0.885492 0.464655 0.464655 -0.885492 663 51.1807)" stroke="#4C4CFF"/>
<ellipse cx="679.708" cy="22.3542" rx="1.5" ry="1" transform="rotate(15 679.708 22.3542)" stroke="#4C4CFF"/>
<ellipse cx="1" cy="0.75" rx="1" ry="0.75" transform="matrix(0.965926 -0.258819 -0.258819 -0.965926 676.388 51.9666)" stroke="#4C4CFF"/>
<ellipse cx="669.5" cy="23" rx="1.5" ry="1" transform="rotate(180 669.5 23)" stroke="#4C4CFF"/>
<ellipse cx="673.708" cy="19.3542" rx="1.5" ry="1" transform="rotate(15 673.708 19.3542)" stroke="#4C4CFF"/>
<ellipse cx="1" cy="0.75" rx="1" ry="0.75" transform="matrix(1 0 0 -1 670 53.5)" stroke="#4C4CFF"/>
<ellipse cx="662.793" cy="21.5826" rx="1.5" ry="1" transform="rotate(-27.6879 662.793 21.5826)" stroke="#4C4CFF"/>
</g>
<g filter="url(#filter8_f_307_99)">
<ellipse cx="1" cy="0.75" rx="1" ry="0.75" transform="matrix(0.885492 0.464655 0.464655 -0.885492 663 51.1807)" stroke="#4C4CFF"/>
<ellipse cx="679.708" cy="22.3542" rx="1.5" ry="1" transform="rotate(15 679.708 22.3542)" stroke="#4C4CFF"/>
<ellipse cx="1" cy="0.75" rx="1" ry="0.75" transform="matrix(0.965926 -0.258819 -0.258819 -0.965926 676.388 51.9666)" stroke="#4C4CFF"/>
<ellipse cx="669.5" cy="23" rx="1.5" ry="1" transform="rotate(180 669.5 23)" stroke="#4C4CFF"/>
<ellipse cx="673.708" cy="19.3542" rx="1.5" ry="1" transform="rotate(15 673.708 19.3542)" stroke="#4C4CFF"/>
<ellipse cx="1" cy="0.75" rx="1" ry="0.75" transform="matrix(1 0 0 -1 670 53.5)" stroke="#4C4CFF"/>
<ellipse cx="662.793" cy="21.5826" rx="1.5" ry="1" transform="rotate(-27.6879 662.793 21.5826)" stroke="#4C4CFF"/>
</g>
<ellipse cx="1" cy="0.75" rx="1" ry="0.75" transform="matrix(0.885492 0.464655 0.464655 -0.885492 663 51.1807)" stroke="#4C4CFF"/>
<ellipse cx="679.708" cy="22.3542" rx="1.5" ry="1" transform="rotate(15 679.708 22.3542)" stroke="#4C4CFF"/>
<ellipse cx="1" cy="0.75" rx="1" ry="0.75" transform="matrix(0.965926 -0.258819 -0.258819 -0.965926 676.388 51.9666)" stroke="#4C4CFF"/>
<ellipse cx="669.5" cy="23" rx="1.5" ry="1" transform="rotate(180 669.5 23)" stroke="#4C4CFF"/>
<ellipse cx="673.708" cy="19.3542" rx="1.5" ry="1" transform="rotate(15 673.708 19.3542)" stroke="#4C4CFF"/>
<ellipse cx="1" cy="0.75" rx="1" ry="0.75" transform="matrix(1 0 0 -1 670 53.5)" stroke="#4C4CFF"/>
<ellipse cx="662.793" cy="21.5826" rx="1.5" ry="1" transform="rotate(-27.6879 662.793 21.5826)" stroke="#4C4CFF"/>
<ellipse cx="1" cy="0.75" rx="1" ry="0.75" transform="matrix(0.885492 0.464655 0.464655 -0.885492 663 51.1807)" stroke="white" stroke-width="0.5"/>
<ellipse cx="679.708" cy="22.3542" rx="1.5" ry="1" transform="rotate(15 679.708 22.3542)" stroke="white" stroke-width="0.5"/>
<ellipse cx="1" cy="0.75" rx="1" ry="0.75" transform="matrix(0.965926 -0.258819 -0.258819 -0.965926 676.388 51.9666)" stroke="white" stroke-width="0.5"/>
<ellipse cx="669.5" cy="23" rx="1.5" ry="1" transform="rotate(180 669.5 23)" stroke="white" stroke-width="0.5"/>
<ellipse cx="673.708" cy="19.3542" rx="1.5" ry="1" transform="rotate(15 673.708 19.3542)" stroke="white" stroke-width="0.5"/>
<ellipse cx="1" cy="0.75" rx="1" ry="0.75" transform="matrix(1 0 0 -1 670 53.5)" stroke="white" stroke-width="0.5"/>
<ellipse cx="662.793" cy="21.5826" rx="1.5" ry="1" transform="rotate(-27.6879 662.793 21.5826)" stroke="white" stroke-width="0.5"/>
<path d="M529.8 36.544C528.968 36.544 528.291 36.304 527.768 35.824C527.256 35.3333 527 34.672 527 33.84C527 32.7413 527.432 31.9467 528.296 31.456C528.712 31.2213 529.213 31.104 529.8 31.104H541.128V33.2H530.328C529.741 33.2 529.448 33.424 529.448 33.872C529.448 34.32 529.741 34.544 530.328 34.544L538.808 34.56C539.64 34.56 540.312 34.8053 540.824 35.296C541.347 35.7867 541.608 36.448 541.608 37.28C541.608 38.4 541.176 39.1947 540.312 39.664C539.907 39.888 539.405 40 538.808 40H527V37.904L538.28 37.92C538.867 37.92 539.16 37.6907 539.16 37.232C539.16 36.784 538.867 36.56 538.28 36.56L529.8 36.544Z" fill="white"/>
<path d="M556.425 40H548.361C547.422 40 546.745 39.7867 546.329 39.36C546.062 39.0827 545.886 38.768 545.801 38.416C545.737 38.1813 545.705 37.8187 545.705 37.328V33.2H544.105V31.104H545.705V27.552H548.377V31.104H556.425V33.2H548.377V36.672C548.377 37.1627 548.489 37.4987 548.713 37.68C548.894 37.8293 549.198 37.904 549.625 37.904H556.425V40Z" fill="white"/>
<path d="M563.881 37.904H573.177V40H563.529C562.142 40 561.081 39.6107 560.345 38.832C559.62 38.0427 559.257 36.9493 559.257 35.552C559.257 34.1547 559.62 33.0667 560.345 32.288C561.081 31.4987 562.142 31.104 563.529 31.104H573.177V33.2H563.881C563.39 33.2 562.985 33.3387 562.665 33.616C562.516 33.744 562.324 34.0427 562.089 34.512L562.073 34.544H573.177V36.544H562.073L562.089 36.592C562.302 37.0507 562.494 37.3493 562.665 37.488C562.985 37.7653 563.39 37.904 563.881 37.904Z" fill="white"/>
<path d="M580.4 40C578.352 40 577.035 39.168 576.448 37.504C576.224 36.864 576.112 36.192 576.112 35.488V31.072H579.024V35.216C579.024 35.9093 579.238 36.4533 579.664 36.848C580.006 37.168 580.496 37.328 581.136 37.328H589.504V40H580.4Z" fill="white"/>
<path d="M596.818 40C594.77 40 593.452 39.168 592.866 37.504C592.642 36.864 592.53 36.192 592.53 35.488V31.072H595.442V35.216C595.442 35.9093 595.655 36.4533 596.082 36.848C596.423 37.168 596.914 37.328 597.554 37.328H605.922V40H596.818Z" fill="white"/>
<path d="M609.555 33.2V31.104H620.227C621.283 31.104 622.121 31.3813 622.739 31.936C623.123 32.2773 623.385 32.6773 623.523 33.136C623.619 33.4773 623.667 33.9573 623.667 34.576V40H611.747C610.873 40 610.185 39.76 609.683 39.28C609.182 38.8 608.931 38.128 608.931 37.264C608.931 36.4 609.182 35.7333 609.683 35.264C610.195 34.784 610.883 34.544 611.747 34.544H620.995V34.464C620.995 33.8027 620.75 33.4027 620.259 33.264C620.11 33.2213 619.881 33.2 619.571 33.2H609.555ZM620.995 37.904V36.544H612.451C611.886 36.544 611.603 36.7733 611.603 37.232C611.603 37.68 611.886 37.904 612.451 37.904H620.995Z" fill="white"/>
<path d="M637.182 34.24C637.182 33.9413 637.087 33.7067 636.895 33.536C636.756 33.408 636.543 33.344 636.255 33.344L629.614 33.328V40H626.942V31.104L636.702 31.072C637.748 31.072 638.548 31.3653 639.103 31.952C639.604 32.4853 639.854 33.0987 639.854 33.792V34.72H637.182V34.24Z" fill="white"/>
<path d="M712.232 41H701V28.552H703.672V32.104H712.232C714.045 32.104 715.299 32.776 715.992 34.12C716.333 34.7813 716.504 35.592 716.504 36.552C716.504 38.4827 715.843 39.7947 714.52 40.488C713.869 40.8293 713.107 41 712.232 41ZM711.88 34.328H703.672V38.776H711.88C712.499 38.776 712.968 38.552 713.288 38.104C713.565 37.72 713.704 37.2027 713.704 36.552C713.704 35.9013 713.565 35.384 713.288 35C712.968 34.552 712.499 34.328 711.88 34.328Z" fill="white"/>
<path d="M721.219 37.832C721.219 38.4613 721.528 38.776 722.147 38.776H730.243V32.104H732.915V41H721.715C720.627 41 719.827 40.7173 719.315 40.152C718.803 39.5867 718.547 38.9627 718.547 38.28V32.104H721.219V37.832Z" fill="white"/>
<path d="M745.756 35.24C745.756 34.9413 745.66 34.7067 745.468 34.536C745.329 34.408 745.116 34.344 744.828 34.344L738.188 34.328V41H735.516V32.104L745.276 32.072C746.321 32.072 747.121 32.3653 747.676 32.952C748.177 33.4853 748.428 34.0987 748.428 34.792V35.72H745.756V35.24Z" fill="white"/>
<path d="M767.311 32.12V41.256C767.311 42.3013 767.007 43.1173 766.399 43.704C765.791 44.2907 765.012 44.584 764.063 44.584L751.695 44.552V42.472L763.583 42.488C763.999 42.488 764.287 42.3653 764.447 42.12C764.575 41.928 764.639 41.6133 764.639 41.176V41H754.991C753.604 41 752.543 40.6107 751.807 39.832C751.081 39.0427 750.719 37.9493 750.719 36.552C750.719 35.1547 751.081 34.0667 751.807 33.288C752.543 32.4987 753.604 32.104 754.991 32.104L767.311 32.12ZM755.343 34.328C754.724 34.328 754.255 34.552 753.935 35C753.657 35.384 753.519 35.9013 753.519 36.552C753.519 37.2027 753.657 37.72 753.935 38.104C754.244 38.552 754.713 38.776 755.343 38.776L764.639 38.744V34.344L755.343 34.328Z" fill="white"/>
<path d="M774.608 38.904H783.904V41H774.256C772.87 41 771.808 40.6107 771.072 39.832C770.347 39.0427 769.984 37.9493 769.984 36.552C769.984 35.1547 770.347 34.0667 771.072 33.288C771.808 32.4987 772.87 32.104 774.256 32.104H783.904V34.2H774.608C774.118 34.2 773.712 34.3387 773.392 34.616C773.243 34.744 773.051 35.0427 772.816 35.512L772.8 35.544H783.904V37.544H772.8L772.816 37.592C773.03 38.0507 773.222 38.3493 773.392 38.488C773.712 38.7653 774.118 38.904 774.608 38.904Z" fill="white"/>
<path d="M796.584 35.24C796.584 34.9413 796.488 34.7067 796.296 34.536C796.157 34.408 795.944 34.344 795.656 34.344L789.016 34.328V41H786.344V32.104L796.104 32.072C797.149 32.072 797.949 32.3653 798.504 32.952C799.005 33.4853 799.256 34.0987 799.256 34.792V35.72H796.584V35.24Z" fill="white"/>
<path d="M804.347 37.544C803.515 37.544 802.838 37.304 802.315 36.824C801.803 36.3333 801.547 35.672 801.547 34.84C801.547 33.7413 801.979 32.9467 802.843 32.456C803.259 32.2213 803.76 32.104 804.347 32.104H815.675V34.2H804.875C804.288 34.2 803.995 34.424 803.995 34.872C803.995 35.32 804.288 35.544 804.875 35.544L813.355 35.56C814.187 35.56 814.859 35.8053 815.371 36.296C815.894 36.7867 816.155 37.448 816.155 38.28C816.155 39.4 815.723 40.1947 814.859 40.664C814.454 40.888 813.952 41 813.355 41H801.547V38.904L812.827 38.92C813.414 38.92 813.707 38.6907 813.707 38.232C813.707 37.784 813.414 37.56 812.827 37.56L804.347 37.544Z" fill="white"/>
</g>
<defs>
<filter id="filter0_dddd_307_99" x="0" y="0" width="1344" height="120" filterUnits="userSpaceOnUse" color-interpolation-filters="sRGB">
<feFlood flood-opacity="0" result="BackgroundImageFix"/>
<feColorMatrix in="SourceAlpha" type="matrix" values="0 0 0 0 0 0 0 0 0 0 0 0 0 0 0 0 0 0 127 0" result="hardAlpha"/>
<feOffset/>
<feGaussianBlur stdDeviation="0.5"/>
<feColorMatrix type="matrix" values="0 0 0 0 0 0 0 0 0 0 0 0 0 0 0 0 0 0 0.04 0"/>
<feBlend mode="normal" in2="BackgroundImageFix" result="effect1_dropShadow_307_99"/>
<feColorMatrix in="SourceAlpha" type="matrix" values="0 0 0 0 0 0 0 0 0 0 0 0 0 0 0 0 0 0 127 0" result="hardAlpha"/>
<feOffset dy="4"/>
<feGaussianBlur stdDeviation="4"/>
<feColorMatrix type="matrix" values="0 0 0 0 0 0 0 0 0 0 0 0 0 0 0 0 0 0 0.04 0"/>
<feBlend mode="normal" in2="effect1_dropShadow_307_99" result="effect2_dropShadow_307_99"/>
<feColorMatrix in="SourceAlpha" type="matrix" values="0 0 0 0 0 0 0 0 0 0 0 0 0 0 0 0 0 0 127 0" result="hardAlpha"/>
<feOffset dy="16"/>
<feGaussianBlur stdDeviation="12"/>
<feColorMatrix type="matrix" values="0 0 0 0 0 0 0 0 0 0 0 0 0 0 0 0 0 0 0.04 0"/>
<feBlend mode="normal" in2="effect2_dropShadow_307_99" result="effect3_dropShadow_307_99"/>
<feColorMatrix in="SourceAlpha" type="matrix" values="0 0 0 0 0 0 0 0 0 0 0 0 0 0 0 0 0 0 127 0" result="hardAlpha"/>
<feOffset dy="24"/>
<feGaussianBlur stdDeviation="16"/>
<feColorMatrix type="matrix" values="0 0 0 0 0 0 0 0 0 0 0 0 0 0 0 0 0 0 0.04 0"/>
<feBlend mode="normal" in2="effect3_dropShadow_307_99" result="effect4_dropShadow_307_99"/>
<feBlend mode="normal" in="SourceGraphic" in2="effect4_dropShadow_307_99" result="shape"/>
</filter>
<filter id="filter1_f_307_99" x="649.012" y="11.5" width="43.3184" height="49" filterUnits="userSpaceOnUse" color-interpolation-filters="sRGB">
<feFlood flood-opacity="0" result="BackgroundImageFix"/>
<feBlend mode="normal" in="SourceGraphic" in2="BackgroundImageFix" result="shape"/>
<feGaussianBlur stdDeviation="2" result="effect1_foregroundBlur_307_99"/>
</filter>
<filter id="filter2_f_307_99" x="649.012" y="11.5" width="43.3184" height="49" filterUnits="userSpaceOnUse" color-interpolation-filters="sRGB">
<feFlood flood-opacity="0" result="BackgroundImageFix"/>
<feBlend mode="normal" in="SourceGraphic" in2="BackgroundImageFix" result="shape"/>
<feGaussianBlur stdDeviation="2" result="effect1_foregroundBlur_307_99"/>
</filter>
<filter id="filter3_f_307_99" x="646.581" y="31" width="48.792" height="17.013" filterUnits="userSpaceOnUse" color-interpolation-filters="sRGB">
<feFlood flood-opacity="0" result="BackgroundImageFix"/>
<feBlend mode="normal" in="SourceGraphic" in2="BackgroundImageFix" result="shape"/>
<feGaussianBlur stdDeviation="2" result="effect1_foregroundBlur_307_99"/>
</filter>
<filter id="filter4_f_307_99" x="646.581" y="31" width="48.792" height="17.013" filterUnits="userSpaceOnUse" color-interpolation-filters="sRGB">
<feFlood flood-opacity="0" result="BackgroundImageFix"/>
<feBlend mode="normal" in="SourceGraphic" in2="BackgroundImageFix" result="shape"/>
<feGaussianBlur stdDeviation="2" result="effect1_foregroundBlur_307_99"/>
</filter>
<filter id="filter5_f_307_99" x="646.5" y="25.5" width="49" height="12" filterUnits="userSpaceOnUse" color-interpolation-filters="sRGB">
<feFlood flood-opacity="0" result="BackgroundImageFix"/>
<feBlend mode="normal" in="SourceGraphic" in2="BackgroundImageFix" result="shape"/>
<feGaussianBlur stdDeviation="2" result="effect1_foregroundBlur_307_99"/>
</filter>
<filter id="filter6_f_307_99" x="646.5" y="25.5" width="49" height="12" filterUnits="userSpaceOnUse" color-interpolation-filters="sRGB">
<feFlood flood-opacity="0" result="BackgroundImageFix"/>
<feBlend mode="normal" in="SourceGraphic" in2="BackgroundImageFix" result="shape"/>
<feGaussianBlur stdDeviation="2" result="effect1_foregroundBlur_307_99"/>
</filter>
<filter id="filter7_f_307_99" x="656.885" y="13.8129" width="28.7952" height="44.1871" filterUnits="userSpaceOnUse" color-interpolation-filters="sRGB">
<feFlood flood-opacity="0" result="BackgroundImageFix"/>
<feBlend mode="normal" in="SourceGraphic" in2="BackgroundImageFix" result="shape"/>
<feGaussianBlur stdDeviation="2" result="effect1_foregroundBlur_307_99"/>
</filter>
<filter id="filter8_f_307_99" x="656.885" y="13.8129" width="28.7952" height="44.1871" filterUnits="userSpaceOnUse" color-interpolation-filters="sRGB">
<feFlood flood-opacity="0" result="BackgroundImageFix"/>
<feBlend mode="normal" in="SourceGraphic" in2="BackgroundImageFix" result="shape"/>
<feGaussianBlur stdDeviation="2" result="effect1_foregroundBlur_307_99"/>
</filter>
</defs>
</svg>
