<svg width="756" height="120" viewBox="0 0 756 120" fill="none" xmlns="http://www.w3.org/2000/svg">
    <g filter="url(#filter0_dddd_307_99)">
        <rect width="692" height="56" transform="translate(32 8)" fill="#1C1C21"/>
        <g filter="url(#filter1_f_307_99)">
            <path d="M392.513 48.6331C393.013 48.0196 392.562 47.1398 391.77 47.1268C381.664 46.9604 373.212 47.1472 362.758 47.7832C361.967 47.8314 361.555 48.7311 362.083 49.3217C365.746 53.4201 371.074 56 377.004 56C383.26 56 388.845 53.1291 392.513 48.6331Z" stroke="#4C4CFF" stroke-linecap="round" stroke-linejoin="round"/>
            <path d="M359.643 26.0579C359.252 26.7378 359.827 27.5294 360.606 27.436C372.173 26.048 380.698 25.6341 392.788 26.3703C393.575 26.4182 394.104 25.5873 393.668 24.9313C390.083 19.5476 383.958 16 377.004 16C369.576 16 363.093 20.048 359.643 26.0579Z" stroke="#4C4CFF" stroke-linecap="round" stroke-linejoin="round"/>
        </g>
        <g filter="url(#filter2_f_307_99)">
            <path d="M392.513 48.6331C393.013 48.0196 392.562 47.1398 391.77 47.1268C381.664 46.9604 373.212 47.1472 362.758 47.7832C361.967 47.8314 361.555 48.7311 362.083 49.3217C365.746 53.4201 371.074 56 377.004 56C383.26 56 388.845 53.1291 392.513 48.6331Z" stroke="#4C4CFF" stroke-linecap="round" stroke-linejoin="round"/>
            <path d="M359.643 26.0579C359.252 26.7378 359.827 27.5294 360.606 27.436C372.173 26.048 380.698 25.6341 392.788 26.3703C393.575 26.4182 394.104 25.5873 393.668 24.9313C390.083 19.5476 383.958 16 377.004 16C369.576 16 363.093 20.048 359.643 26.0579Z" stroke="#4C4CFF" stroke-linecap="round" stroke-linejoin="round"/>
        </g>
        <path d="M392.513 48.6331C393.013 48.0196 392.562 47.1398 391.77 47.1268C381.664 46.9604 373.212 47.1472 362.758 47.7832C361.967 47.8314 361.555 48.7311 362.083 49.3217C365.746 53.4201 371.074 56 377.004 56C383.26 56 388.845 53.1291 392.513 48.6331Z" stroke="#4C4CFF" stroke-linecap="round" stroke-linejoin="round"/>
        <path d="M359.643 26.0579C359.252 26.7378 359.827 27.5294 360.606 27.436C372.173 26.048 380.698 25.6341 392.788 26.3703C393.575 26.4182 394.104 25.5873 393.668 24.9313C390.083 19.5476 383.958 16 377.004 16C369.576 16 363.093 20.048 359.643 26.0579Z" stroke="#4C4CFF" stroke-linecap="round" stroke-linejoin="round"/>
        <path d="M392.513 48.6331C393.013 48.0196 392.562 47.1398 391.77 47.1268C381.664 46.9604 373.212 47.1472 362.758 47.7832C361.967 47.8314 361.555 48.7311 362.083 49.3217C365.746 53.4201 371.074 56 377.004 56C383.26 56 388.845 53.1291 392.513 48.6331Z" stroke="white" stroke-width="0.5" stroke-linecap="round" stroke-linejoin="round"/>
        <path d="M359.643 26.0579C359.252 26.7378 359.827 27.5294 360.606 27.436C372.173 26.048 380.698 25.6341 392.788 26.3703C393.575 26.4182 394.104 25.5873 393.668 24.9313C390.083 19.5476 383.958 16 377.004 16C369.576 16 363.093 20.048 359.643 26.0579Z" stroke="white" stroke-width="0.5" stroke-linecap="round" stroke-linejoin="round"/>
        <g filter="url(#filter3_f_307_99)">
            <path d="M396.859 38.4656C396.988 37.4133 396.172 36.5115 395.115 36.4264C382.235 35.3883 372.184 35.2251 358.89 35.9245C357.831 35.9802 356.99 36.8596 357.089 37.9156C357.23 39.4145 357.537 40.8654 357.991 42.2496C358.253 43.0473 359.032 43.5408 359.871 43.5118C372.383 43.0783 382.06 43.0468 394.196 43.3747C395.035 43.3973 395.811 42.8976 396.066 42.0975C396.439 40.9298 396.707 39.7155 396.859 38.4656Z" stroke="#E33CD5" stroke-linecap="round" stroke-linejoin="round"/>
        </g>
        <g filter="url(#filter4_f_307_99)">
            <path d="M396.859 38.4656C396.988 37.4133 396.172 36.5115 395.115 36.4264C382.235 35.3883 372.184 35.2251 358.89 35.9245C357.831 35.9802 356.99 36.8596 357.089 37.9156C357.23 39.4145 357.537 40.8654 357.991 42.2496C358.253 43.0473 359.032 43.5408 359.871 43.5118C372.383 43.0783 382.06 43.0468 394.196 43.3747C395.035 43.3973 395.811 42.8976 396.066 42.0975C396.439 40.9298 396.707 39.7155 396.859 38.4656Z" stroke="#E33CD5" stroke-linecap="round" stroke-linejoin="round"/>
        </g>
        <path d="M396.859 38.4656C396.988 37.4133 396.172 36.5115 395.115 36.4264C382.235 35.3883 372.184 35.2251 358.89 35.9245C357.831 35.9802 356.99 36.8596 357.089 37.9156C357.23 39.4145 357.537 40.8654 357.991 42.2496C358.253 43.0473 359.032 43.5408 359.871 43.5118C372.383 43.0783 382.06 43.0468 394.196 43.3747C395.035 43.3973 395.811 42.8976 396.066 42.0975C396.439 40.9298 396.707 39.7155 396.859 38.4656Z" stroke="#E33CD5" stroke-linecap="round" stroke-linejoin="round"/>
        <path d="M396.859 38.4656C396.988 37.4133 396.172 36.5115 395.115 36.4264C382.235 35.3883 372.184 35.2251 358.89 35.9245C357.831 35.9802 356.99 36.8596 357.089 37.9156C357.23 39.4145 357.537 40.8654 357.991 42.2496C358.253 43.0473 359.032 43.5408 359.871 43.5118C372.383 43.0783 382.06 43.0468 394.196 43.3747C395.035 43.3973 395.811 42.8976 396.066 42.0975C396.439 40.9298 396.707 39.7155 396.859 38.4656Z" stroke="white" stroke-width="0.5" stroke-linecap="round" stroke-linejoin="round"/>
        <g filter="url(#filter5_f_307_99)">
            <path d="M357 31.5C359.667 29.5 362.333 29.5 365 31.5C367.667 33.5 370.333 33.5 373 31.5C375.667 29.5 378.333 29.5 381 31.5C383.667 33.5 386.333 33.5 389 31.5C391.667 29.5 394.333 29.5 397 31.5" stroke="#00CCCC" stroke-linecap="round" stroke-linejoin="round"/>
        </g>
        <g filter="url(#filter6_f_307_99)">
            <path d="M357 31.5C359.667 29.5 362.333 29.5 365 31.5C367.667 33.5 370.333 33.5 373 31.5C375.667 29.5 378.333 29.5 381 31.5C383.667 33.5 386.333 33.5 389 31.5C391.667 29.5 394.333 29.5 397 31.5" stroke="#00CCCC" stroke-linecap="round" stroke-linejoin="round"/>
        </g>
        <path d="M357 31.5C359.667 29.5 362.333 29.5 365 31.5C367.667 33.5 370.333 33.5 373 31.5C375.667 29.5 378.333 29.5 381 31.5C383.667 33.5 386.333 33.5 389 31.5C391.667 29.5 394.333 29.5 397 31.5" stroke="#00CCCC" stroke-linecap="round" stroke-linejoin="round"/>
        <path d="M357 31.5C359.667 29.5 362.333 29.5 365 31.5C367.667 33.5 370.333 33.5 373 31.5C375.667 29.5 378.333 29.5 381 31.5C383.667 33.5 386.333 33.5 389 31.5C391.667 29.5 394.333 29.5 397 31.5" stroke="white" stroke-width="0.5" stroke-linecap="round" stroke-linejoin="round"/>
        <g filter="url(#filter7_f_307_99)">
            <ellipse cx="1" cy="0.75" rx="1" ry="0.75" transform="matrix(0.885492 0.464655 0.464655 -0.885492 369 51.1807)" stroke="#4C4CFF"/>
            <ellipse cx="385.708" cy="22.3542" rx="1.5" ry="1" transform="rotate(15 385.708 22.3542)" stroke="#4C4CFF"/>
            <ellipse cx="1" cy="0.75" rx="1" ry="0.75" transform="matrix(0.965926 -0.258819 -0.258819 -0.965926 382.388 51.9666)" stroke="#4C4CFF"/>
            <ellipse cx="375.5" cy="23" rx="1.5" ry="1" transform="rotate(180 375.5 23)" stroke="#4C4CFF"/>
            <ellipse cx="379.708" cy="19.3542" rx="1.5" ry="1" transform="rotate(15 379.708 19.3542)" stroke="#4C4CFF"/>
            <ellipse cx="1" cy="0.75" rx="1" ry="0.75" transform="matrix(1 0 0 -1 376 53.5)" stroke="#4C4CFF"/>
            <ellipse cx="368.793" cy="21.5826" rx="1.5" ry="1" transform="rotate(-27.6879 368.793 21.5826)" stroke="#4C4CFF"/>
        </g>
        <g filter="url(#filter8_f_307_99)">
            <ellipse cx="1" cy="0.75" rx="1" ry="0.75" transform="matrix(0.885492 0.464655 0.464655 -0.885492 369 51.1807)" stroke="#4C4CFF"/>
            <ellipse cx="385.708" cy="22.3542" rx="1.5" ry="1" transform="rotate(15 385.708 22.3542)" stroke="#4C4CFF"/>
            <ellipse cx="1" cy="0.75" rx="1" ry="0.75" transform="matrix(0.965926 -0.258819 -0.258819 -0.965926 382.388 51.9666)" stroke="#4C4CFF"/>
            <ellipse cx="375.5" cy="23" rx="1.5" ry="1" transform="rotate(180 375.5 23)" stroke="#4C4CFF"/>
            <ellipse cx="379.708" cy="19.3542" rx="1.5" ry="1" transform="rotate(15 379.708 19.3542)" stroke="#4C4CFF"/>
            <ellipse cx="1" cy="0.75" rx="1" ry="0.75" transform="matrix(1 0 0 -1 376 53.5)" stroke="#4C4CFF"/>
            <ellipse cx="368.793" cy="21.5826" rx="1.5" ry="1" transform="rotate(-27.6879 368.793 21.5826)" stroke="#4C4CFF"/>
        </g>
        <ellipse cx="1" cy="0.75" rx="1" ry="0.75" transform="matrix(0.885492 0.464655 0.464655 -0.885492 369 51.1807)" stroke="#4C4CFF"/>
        <ellipse cx="385.708" cy="22.3542" rx="1.5" ry="1" transform="rotate(15 385.708 22.3542)" stroke="#4C4CFF"/>
        <ellipse cx="1" cy="0.75" rx="1" ry="0.75" transform="matrix(0.965926 -0.258819 -0.258819 -0.965926 382.388 51.9666)" stroke="#4C4CFF"/>
        <ellipse cx="375.5" cy="23" rx="1.5" ry="1" transform="rotate(180 375.5 23)" stroke="#4C4CFF"/>
        <ellipse cx="379.708" cy="19.3542" rx="1.5" ry="1" transform="rotate(15 379.708 19.3542)" stroke="#4C4CFF"/>
        <ellipse cx="1" cy="0.75" rx="1" ry="0.75" transform="matrix(1 0 0 -1 376 53.5)" stroke="#4C4CFF"/>
        <ellipse cx="368.793" cy="21.5826" rx="1.5" ry="1" transform="rotate(-27.6879 368.793 21.5826)" stroke="#4C4CFF"/>
        <ellipse cx="1" cy="0.75" rx="1" ry="0.75" transform="matrix(0.885492 0.464655 0.464655 -0.885492 369 51.1807)" stroke="white" stroke-width="0.5"/>
        <ellipse cx="385.708" cy="22.3542" rx="1.5" ry="1" transform="rotate(15 385.708 22.3542)" stroke="white" stroke-width="0.5"/>
        <ellipse cx="1" cy="0.75" rx="1" ry="0.75" transform="matrix(0.965926 -0.258819 -0.258819 -0.965926 382.388 51.9666)" stroke="white" stroke-width="0.5"/>
        <ellipse cx="375.5" cy="23" rx="1.5" ry="1" transform="rotate(180 375.5 23)" stroke="white" stroke-width="0.5"/>
        <ellipse cx="379.708" cy="19.3542" rx="1.5" ry="1" transform="rotate(15 379.708 19.3542)" stroke="white" stroke-width="0.5"/>
        <ellipse cx="1" cy="0.75" rx="1" ry="0.75" transform="matrix(1 0 0 -1 376 53.5)" stroke="white" stroke-width="0.5"/>
        <ellipse cx="368.793" cy="21.5826" rx="1.5" ry="1" transform="rotate(-27.6879 368.793 21.5826)" stroke="white" stroke-width="0.5"/>
        <path d="M235.8 36.544C234.968 36.544 234.291 36.304 233.768 35.824C233.256 35.3333 233 34.672 233 33.84C233 32.7413 233.432 31.9467 234.296 31.456C234.712 31.2213 235.213 31.104 235.8 31.104H247.128V33.2H236.328C235.741 33.2 235.448 33.424 235.448 33.872C235.448 34.32 235.741 34.544 236.328 34.544L244.808 34.56C245.64 34.56 246.312 34.8053 246.824 35.296C247.347 35.7867 247.608 36.448 247.608 37.28C247.608 38.4 247.176 39.1947 246.312 39.664C245.907 39.888 245.405 40 244.808 40H233V37.904L244.28 37.92C244.867 37.92 245.16 37.6907 245.16 37.232C245.16 36.784 244.867 36.56 244.28 36.56L235.8 36.544Z" fill="white"/>
        <path d="M262.425 40H254.361C253.422 40 252.745 39.7867 252.329 39.36C252.062 39.0827 251.886 38.768 251.801 38.416C251.737 38.1813 251.705 37.8187 251.705 37.328V33.2H250.105V31.104H251.705V27.552H254.377V31.104H262.425V33.2H254.377V36.672C254.377 37.1627 254.489 37.4987 254.713 37.68C254.894 37.8293 255.198 37.904 255.625 37.904H262.425V40Z" fill="white"/>
        <path d="M269.881 37.904H279.177V40H269.529C268.142 40 267.081 39.6107 266.345 38.832C265.62 38.0427 265.257 36.9493 265.257 35.552C265.257 34.1547 265.62 33.0667 266.345 32.288C267.081 31.4987 268.142 31.104 269.529 31.104H279.177V33.2H269.881C269.39 33.2 268.985 33.3387 268.665 33.616C268.516 33.744 268.324 34.0427 268.089 34.512L268.073 34.544H279.177V36.544H268.073L268.089 36.592C268.302 37.0507 268.494 37.3493 268.665 37.488C268.985 37.7653 269.39 37.904 269.881 37.904Z" fill="white"/>
        <path d="M286.4 40C284.352 40 283.035 39.168 282.448 37.504C282.224 36.864 282.112 36.192 282.112 35.488V31.072H285.024V35.216C285.024 35.9093 285.238 36.4533 285.664 36.848C286.006 37.168 286.496 37.328 287.136 37.328H295.504V40H286.4Z" fill="white"/>
        <path d="M302.818 40C300.77 40 299.452 39.168 298.866 37.504C298.642 36.864 298.53 36.192 298.53 35.488V31.072H301.442V35.216C301.442 35.9093 301.655 36.4533 302.082 36.848C302.423 37.168 302.914 37.328 303.554 37.328H311.922V40H302.818Z" fill="white"/>
        <path d="M315.555 33.2V31.104H326.227C327.283 31.104 328.121 31.3813 328.739 31.936C329.123 32.2773 329.385 32.6773 329.523 33.136C329.619 33.4773 329.667 33.9573 329.667 34.576V40H317.747C316.873 40 316.185 39.76 315.683 39.28C315.182 38.8 314.931 38.128 314.931 37.264C314.931 36.4 315.182 35.7333 315.683 35.264C316.195 34.784 316.883 34.544 317.747 34.544H326.995V34.464C326.995 33.8027 326.75 33.4027 326.259 33.264C326.11 33.2213 325.881 33.2 325.571 33.2H315.555ZM326.995 37.904V36.544H318.451C317.886 36.544 317.603 36.7733 317.603 37.232C317.603 37.68 317.886 37.904 318.451 37.904H326.995Z" fill="white"/>
        <path d="M343.182 34.24C343.182 33.9413 343.087 33.7067 342.895 33.536C342.756 33.408 342.543 33.344 342.255 33.344L335.614 33.328V40H332.942V31.104L342.702 31.072C343.748 31.072 344.548 31.3653 345.103 31.952C345.604 32.4853 345.854 33.0987 345.854 33.792V34.72H343.182V34.24Z" fill="white"/>
        <path d="M418.232 41H407V28.552H409.672V32.104H418.232C420.045 32.104 421.299 32.776 421.992 34.12C422.333 34.7813 422.504 35.592 422.504 36.552C422.504 38.4827 421.843 39.7947 420.52 40.488C419.869 40.8293 419.107 41 418.232 41ZM417.88 34.328H409.672V38.776H417.88C418.499 38.776 418.968 38.552 419.288 38.104C419.565 37.72 419.704 37.2027 419.704 36.552C419.704 35.9013 419.565 35.384 419.288 35C418.968 34.552 418.499 34.328 417.88 34.328Z" fill="white"/>
        <path d="M427.219 37.832C427.219 38.4613 427.528 38.776 428.147 38.776H436.243V32.104H438.915V41H427.715C426.627 41 425.827 40.7173 425.315 40.152C424.803 39.5867 424.547 38.9627 424.547 38.28V32.104H427.219V37.832Z" fill="white"/>
        <path d="M451.756 35.24C451.756 34.9413 451.66 34.7067 451.468 34.536C451.329 34.408 451.116 34.344 450.828 34.344L444.188 34.328V41H441.516V32.104L451.276 32.072C452.321 32.072 453.121 32.3653 453.676 32.952C454.177 33.4853 454.428 34.0987 454.428 34.792V35.72H451.756V35.24Z" fill="white"/>
        <path d="M473.311 32.12V41.256C473.311 42.3013 473.007 43.1173 472.399 43.704C471.791 44.2907 471.012 44.584 470.063 44.584L457.695 44.552V42.472L469.583 42.488C469.999 42.488 470.287 42.3653 470.447 42.12C470.575 41.928 470.639 41.6133 470.639 41.176V41H460.991C459.604 41 458.543 40.6107 457.807 39.832C457.081 39.0427 456.719 37.9493 456.719 36.552C456.719 35.1547 457.081 34.0667 457.807 33.288C458.543 32.4987 459.604 32.104 460.991 32.104L473.311 32.12ZM461.343 34.328C460.724 34.328 460.255 34.552 459.935 35C459.657 35.384 459.519 35.9013 459.519 36.552C459.519 37.2027 459.657 37.72 459.935 38.104C460.244 38.552 460.713 38.776 461.343 38.776L470.639 38.744V34.344L461.343 34.328Z" fill="white"/>
        <path d="M480.608 38.904H489.904V41H480.256C478.87 41 477.808 40.6107 477.072 39.832C476.347 39.0427 475.984 37.9493 475.984 36.552C475.984 35.1547 476.347 34.0667 477.072 33.288C477.808 32.4987 478.87 32.104 480.256 32.104H489.904V34.2H480.608C480.118 34.2 479.712 34.3387 479.392 34.616C479.243 34.744 479.051 35.0427 478.816 35.512L478.8 35.544H489.904V37.544H478.8L478.816 37.592C479.03 38.0507 479.222 38.3493 479.392 38.488C479.712 38.7653 480.118 38.904 480.608 38.904Z" fill="white"/>
        <path d="M502.584 35.24C502.584 34.9413 502.488 34.7067 502.296 34.536C502.157 34.408 501.944 34.344 501.656 34.344L495.016 34.328V41H492.344V32.104L502.104 32.072C503.149 32.072 503.949 32.3653 504.504 32.952C505.005 33.4853 505.256 34.0987 505.256 34.792V35.72H502.584V35.24Z" fill="white"/>
        <path d="M510.347 37.544C509.515 37.544 508.838 37.304 508.315 36.824C507.803 36.3333 507.547 35.672 507.547 34.84C507.547 33.7413 507.979 32.9467 508.843 32.456C509.259 32.2213 509.76 32.104 510.347 32.104H521.675V34.2H510.875C510.288 34.2 509.995 34.424 509.995 34.872C509.995 35.32 510.288 35.544 510.875 35.544L519.355 35.56C520.187 35.56 520.859 35.8053 521.371 36.296C521.894 36.7867 522.155 37.448 522.155 38.28C522.155 39.4 521.723 40.1947 520.859 40.664C520.454 40.888 519.952 41 519.355 41H507.547V38.904L518.827 38.92C519.414 38.92 519.707 38.6907 519.707 38.232C519.707 37.784 519.414 37.56 518.827 37.56L510.347 37.544Z" fill="white"/>
    </g>
    <defs>
        <filter id="filter0_dddd_307_99" x="0" y="0" width="756" height="120" filterUnits="userSpaceOnUse" color-interpolation-filters="sRGB">
            <feFlood flood-opacity="0" result="BackgroundImageFix"/>
            <feColorMatrix in="SourceAlpha" type="matrix" values="0 0 0 0 0 0 0 0 0 0 0 0 0 0 0 0 0 0 127 0" result="hardAlpha"/>
            <feOffset/>
            <feGaussianBlur stdDeviation="0.5"/>
            <feColorMatrix type="matrix" values="0 0 0 0 0 0 0 0 0 0 0 0 0 0 0 0 0 0 0.04 0"/>
            <feBlend mode="normal" in2="BackgroundImageFix" result="effect1_dropShadow_307_99"/>
            <feColorMatrix in="SourceAlpha" type="matrix" values="0 0 0 0 0 0 0 0 0 0 0 0 0 0 0 0 0 0 127 0" result="hardAlpha"/>
            <feOffset dy="4"/>
            <feGaussianBlur stdDeviation="4"/>
            <feColorMatrix type="matrix" values="0 0 0 0 0 0 0 0 0 0 0 0 0 0 0 0 0 0 0.04 0"/>
            <feBlend mode="normal" in2="effect1_dropShadow_307_99" result="effect2_dropShadow_307_99"/>
            <feColorMatrix in="SourceAlpha" type="matrix" values="0 0 0 0 0 0 0 0 0 0 0 0 0 0 0 0 0 0 127 0" result="hardAlpha"/>
            <feOffset dy="16"/>
            <feGaussianBlur stdDeviation="12"/>
            <feColorMatrix type="matrix" values="0 0 0 0 0 0 0 0 0 0 0 0 0 0 0 0 0 0 0.04 0"/>
            <feBlend mode="normal" in2="effect2_dropShadow_307_99" result="effect3_dropShadow_307_99"/>
            <feColorMatrix in="SourceAlpha" type="matrix" values="0 0 0 0 0 0 0 0 0 0 0 0 0 0 0 0 0 0 127 0" result="hardAlpha"/>
            <feOffset dy="24"/>
            <feGaussianBlur stdDeviation="16"/>
            <feColorMatrix type="matrix" values="0 0 0 0 0 0 0 0 0 0 0 0 0 0 0 0 0 0 0.04 0"/>
            <feBlend mode="normal" in2="effect3_dropShadow_307_99" result="effect4_dropShadow_307_99"/>
            <feBlend mode="normal" in="SourceGraphic" in2="effect4_dropShadow_307_99" result="shape"/>
        </filter>
        <filter id="filter1_f_307_99" x="355.012" y="11.5" width="43.3184" height="49" filterUnits="userSpaceOnUse" color-interpolation-filters="sRGB">
            <feFlood flood-opacity="0" result="BackgroundImageFix"/>
            <feBlend mode="normal" in="SourceGraphic" in2="BackgroundImageFix" result="shape"/>
            <feGaussianBlur stdDeviation="2" result="effect1_foregroundBlur_307_99"/>
        </filter>
        <filter id="filter2_f_307_99" x="355.012" y="11.5" width="43.3184" height="49" filterUnits="userSpaceOnUse" color-interpolation-filters="sRGB">
            <feFlood flood-opacity="0" result="BackgroundImageFix"/>
            <feBlend mode="normal" in="SourceGraphic" in2="BackgroundImageFix" result="shape"/>
            <feGaussianBlur stdDeviation="2" result="effect1_foregroundBlur_307_99"/>
        </filter>
        <filter id="filter3_f_307_99" x="352.581" y="31" width="48.792" height="17.013" filterUnits="userSpaceOnUse" color-interpolation-filters="sRGB">
            <feFlood flood-opacity="0" result="BackgroundImageFix"/>
            <feBlend mode="normal" in="SourceGraphic" in2="BackgroundImageFix" result="shape"/>
            <feGaussianBlur stdDeviation="2" result="effect1_foregroundBlur_307_99"/>
        </filter>
        <filter id="filter4_f_307_99" x="352.581" y="31" width="48.792" height="17.013" filterUnits="userSpaceOnUse" color-interpolation-filters="sRGB">
            <feFlood flood-opacity="0" result="BackgroundImageFix"/>
            <feBlend mode="normal" in="SourceGraphic" in2="BackgroundImageFix" result="shape"/>
            <feGaussianBlur stdDeviation="2" result="effect1_foregroundBlur_307_99"/>
        </filter>
        <filter id="filter5_f_307_99" x="352.5" y="25.5" width="49" height="12" filterUnits="userSpaceOnUse" color-interpolation-filters="sRGB">
            <feFlood flood-opacity="0" result="BackgroundImageFix"/>
            <feBlend mode="normal" in="SourceGraphic" in2="BackgroundImageFix" result="shape"/>
            <feGaussianBlur stdDeviation="2" result="effect1_foregroundBlur_307_99"/>
        </filter>
        <filter id="filter6_f_307_99" x="352.5" y="25.5" width="49" height="12" filterUnits="userSpaceOnUse" color-interpolation-filters="sRGB">
            <feFlood flood-opacity="0" result="BackgroundImageFix"/>
            <feBlend mode="normal" in="SourceGraphic" in2="BackgroundImageFix" result="shape"/>
            <feGaussianBlur stdDeviation="2" result="effect1_foregroundBlur_307_99"/>
        </filter>
        <filter id="filter7_f_307_99" x="362.885" y="13.8129" width="28.7952" height="44.1871" filterUnits="userSpaceOnUse" color-interpolation-filters="sRGB">
            <feFlood flood-opacity="0" result="BackgroundImageFix"/>
            <feBlend mode="normal" in="SourceGraphic" in2="BackgroundImageFix" result="shape"/>
            <feGaussianBlur stdDeviation="2" result="effect1_foregroundBlur_307_99"/>
        </filter>
        <filter id="filter8_f_307_99" x="362.885" y="13.8129" width="28.7952" height="44.1871" filterUnits="userSpaceOnUse" color-interpolation-filters="sRGB">
            <feFlood flood-opacity="0" result="BackgroundImageFix"/>
            <feBlend mode="normal" in="SourceGraphic" in2="BackgroundImageFix" result="shape"/>
            <feGaussianBlur stdDeviation="2" result="effect1_foregroundBlur_307_99"/>
        </filter>
    </defs>
</svg>
