<svg width="1078" height="555" viewBox="0 0 1078 555" fill="none" xmlns="http://www.w3.org/2000/svg">
<path d="M901.321 119.856C902.539 117.204 902.953 114.253 902.513 111.368C902.072 108.483 900.797 105.79 898.843 103.622C896.89 101.454 894.344 99.9052 891.52 99.1674C888.697 98.4297 885.719 98.5352 882.954 99.4708C882.324 96.0969 880.969 92.8996 878.985 90.0991C877 87.2986 874.433 84.9612 871.459 83.2479C868.484 81.5347 865.174 80.4862 861.756 80.1745C858.338 79.8629 854.893 80.2955 851.658 81.4427C848.308 75.6471 843.274 71.0073 837.226 68.1393C831.177 65.2713 824.399 64.3106 817.792 65.3848C811.184 66.459 805.06 69.5173 800.231 74.1537C795.403 78.7901 792.098 84.7854 790.757 91.3437C787.646 89.2797 784.06 88.0416 780.338 87.7457C776.616 87.4499 772.881 88.1061 769.482 89.6526C766.084 91.1991 763.135 93.5851 760.914 96.5858C758.692 99.5865 757.271 103.103 756.783 106.805C754.707 105.657 752.36 105.09 749.989 105.165C747.618 105.24 745.311 105.953 743.311 107.23C742.895 102.213 740.663 97.5199 737.034 94.031C733.405 90.5421 728.628 88.4969 723.598 88.2788C718.569 88.0607 713.632 89.6847 709.715 92.8463C705.797 96.0079 703.167 100.49 702.318 105.452C701.222 105.126 700.084 104.957 698.94 104.948C695.79 104.935 692.763 106.175 690.526 108.394C688.289 110.612 687.025 113.629 687.012 116.78C687.012 117.518 687.08 118.254 687.213 118.98L901.321 119.856Z" fill="#E3F0FF"/>
<path d="M317.757 266.49C318.552 264.756 318.899 262.851 318.767 260.948C318.635 259.045 318.027 257.205 317 255.598C315.973 253.991 314.559 252.667 312.887 251.748C311.216 250.829 309.34 250.344 307.433 250.338C306.181 250.338 304.937 250.542 303.75 250.943C303.271 248.371 302.239 245.933 300.727 243.798C299.214 241.663 297.257 239.881 294.99 238.575C292.723 237.27 290.199 236.471 287.593 236.234C284.988 235.998 282.362 236.329 279.896 237.205C277.341 232.79 273.505 229.256 268.895 227.072C264.286 224.888 259.121 224.156 254.086 224.974C249.052 225.791 244.384 228.12 240.703 231.651C237.022 235.182 234.501 239.749 233.475 244.745C231.103 243.171 228.369 242.228 225.531 242.002C222.693 241.777 219.845 242.278 217.254 243.458C214.663 244.638 212.415 246.458 210.722 248.746C209.029 251.035 207.947 253.717 207.577 256.539C205.996 255.658 204.206 255.222 202.397 255.278C200.588 255.334 198.828 255.88 197.305 256.857C196.982 253.039 195.278 249.468 192.513 246.815C189.747 244.162 186.11 242.607 182.281 242.442C178.452 242.276 174.694 243.512 171.71 245.917C168.726 248.323 166.721 251.733 166.07 255.51C164.721 255.091 163.291 254.996 161.898 255.233C160.505 255.47 159.187 256.031 158.051 256.871C156.915 257.712 155.993 258.808 155.36 260.071C154.727 261.334 154.399 262.729 154.405 264.142C154.405 264.706 154.457 265.268 154.558 265.823L317.757 266.49Z" fill="#E3F0FF"/>
<path d="M983.612 303.213C984.407 301.48 984.755 299.574 984.623 297.671C984.49 295.768 983.883 293.929 982.855 292.321C981.828 290.714 980.414 289.39 978.743 288.471C977.071 287.552 975.196 287.067 973.288 287.061C972.036 287.061 970.792 287.265 969.606 287.666C969.126 285.094 968.095 282.656 966.582 280.521C965.07 278.386 963.113 276.604 960.845 275.299C958.578 273.993 956.054 273.194 953.449 272.958C950.843 272.721 948.217 273.052 945.752 273.928C943.196 269.514 939.36 265.98 934.751 263.795C930.141 261.611 924.977 260.879 919.942 261.697C914.907 262.515 910.24 264.843 906.559 268.375C902.878 271.906 900.357 276.472 899.33 281.469C896.958 279.895 894.224 278.951 891.386 278.726C888.549 278.5 885.7 279.001 883.109 280.181C880.518 281.361 878.271 283.181 876.578 285.47C874.885 287.758 873.802 290.44 873.432 293.263C871.851 292.381 870.061 291.945 868.252 292.001C866.443 292.057 864.684 292.603 863.161 293.581C862.837 289.762 861.133 286.192 858.368 283.538C855.603 280.885 851.965 279.33 848.136 279.165C844.307 279 840.549 280.235 837.566 282.641C834.582 285.046 832.577 288.456 831.926 292.233C830.576 291.814 829.147 291.72 827.754 291.956C826.36 292.193 825.043 292.754 823.907 293.595C822.771 294.435 821.849 295.531 821.215 296.795C820.582 298.058 820.255 299.452 820.26 300.865C820.261 301.429 820.312 301.992 820.413 302.546L983.612 303.213Z" fill="#E3F0FF"/>
<path d="M428.365 132.289L512.937 112.689L966.352 541.46C966.772 541.955 967.143 542.49 967.458 543.058L417.27 541.301L428.365 132.289Z" fill="#E3F0FF"/>
<path d="M519.927 149.482C521.305 152.728 523.615 155.492 526.564 157.425C529.514 159.358 532.97 160.373 536.496 160.342C540.022 160.311 543.46 159.235 546.374 157.25C549.289 155.265 551.55 152.461 552.871 149.191C554.192 145.922 554.513 142.334 553.796 138.882C553.078 135.429 551.352 132.267 548.837 129.795C546.322 127.324 543.131 125.653 539.667 124.995C536.203 124.336 532.621 124.72 529.375 126.097C527.219 127.012 525.264 128.342 523.622 130.013C521.98 131.683 520.683 133.661 519.806 135.832C518.928 138.004 518.488 140.327 518.508 142.669C518.529 145.012 519.011 147.327 519.927 149.482Z" fill="#346EE3"/>
<path d="M410.838 195.734C412.215 198.981 414.523 201.746 417.471 203.681C420.42 205.616 423.876 206.633 427.402 206.603C430.928 206.574 434.367 205.5 437.282 203.516C440.198 201.533 442.46 198.729 443.783 195.46C445.105 192.191 445.429 188.604 444.713 185.151C443.996 181.698 442.272 178.535 439.758 176.062C437.244 173.589 434.053 171.917 430.589 171.257C427.125 170.598 423.543 170.98 420.296 172.356C418.14 173.27 416.185 174.599 414.542 176.269C412.9 177.938 411.603 179.915 410.724 182.086C409.846 184.257 409.404 186.58 409.424 188.921C409.443 191.263 409.924 193.578 410.838 195.734Z" fill="#346EE3"/>
<path d="M466.973 181.516C468.351 184.763 470.661 187.528 473.611 189.462C476.561 191.396 480.018 192.411 483.545 192.38C487.073 192.348 490.511 191.271 493.426 189.285C496.341 187.299 498.602 184.493 499.922 181.222C501.242 177.951 501.562 174.362 500.842 170.909C500.122 167.456 498.394 164.295 495.876 161.824C493.359 159.353 490.165 157.685 486.699 157.029C483.234 156.374 479.651 156.761 476.406 158.142C472.057 159.993 468.62 163.494 466.851 167.877C465.083 172.26 465.126 177.165 466.973 181.516Z" fill="#346EE3"/>
<path d="M432.144 51.456C433.079 51.0589 434.082 50.85 435.098 50.8411C436.113 50.8322 437.12 51.0237 438.062 51.4044C439.003 51.7852 439.86 52.3478 440.583 53.0601C441.307 53.7723 441.883 54.6203 442.279 55.5554L443.387 58.1632C441.344 59.7919 439.083 61.1262 436.67 62.127C434.278 63.1696 431.75 63.8664 429.161 64.1966L428.054 61.5888C427.656 60.6549 427.447 59.6519 427.438 58.6372C427.429 57.6224 427.619 56.6157 427.999 55.6747C428.379 54.7337 428.941 53.8768 429.652 53.1529C430.363 52.429 431.21 51.8524 432.144 51.456Z" fill="#1F3B80"/>
<path d="M379.083 182.455C387.379 202.011 434.964 200.543 485.365 179.171C535.767 157.799 569.897 124.615 561.611 105.058C553.324 85.4999 505.705 86.9737 455.317 108.378C404.93 129.783 370.78 162.9 379.083 182.455Z" fill="#1F3B80"/>
<path d="M353.284 178.377C345.958 161.097 390.019 125.891 451.697 99.7405C513.375 73.5901 569.314 66.3986 576.64 83.6778C583.966 100.957 539.905 136.164 478.227 162.314C416.549 188.464 360.61 195.656 353.284 178.377Z" fill="#346EE3"/>
<path d="M396.653 146.652C400.684 156.137 431.404 152.18 465.287 137.825C499.169 123.47 523.359 104.137 519.371 94.6453C515.382 85.1532 484.628 89.1162 450.745 103.471C416.862 117.826 392.633 137.183 396.653 146.652Z" fill="#70A5F2"/>
<path d="M475.264 155.41C532.858 130.999 574.99 98.7321 574.462 80.4769C575.362 81.3897 576.081 82.4641 576.583 83.6437C583.906 100.922 539.851 136.13 478.172 162.246C416.492 188.362 360.558 195.599 353.235 178.321C352.74 177.147 352.474 175.89 352.451 174.616C365.182 187.705 417.721 179.812 475.264 155.41Z" fill="#70A5F2"/>
<path d="M434.989 60.4644C440.744 58.0232 446.923 56.7396 453.174 56.6869C459.425 56.6342 465.625 57.8135 471.421 60.1573C477.216 62.5012 482.493 65.9638 486.949 70.3472C491.406 74.7307 494.956 79.9492 497.396 85.7047L504.231 101.778C493.341 110.7 479.167 119.302 462.885 126.207C446.603 133.113 430.588 137.352 416.583 138.945L409.767 122.877C404.836 111.256 404.723 98.1521 409.453 86.4478C414.183 74.7434 423.368 65.3971 434.989 60.4644Z" fill="#86B6EF"/>
<path d="M462.992 146.196C464.131 148.887 468.235 149.711 472.134 148.056C476.034 146.401 478.307 142.871 477.16 140.137C476.013 137.404 471.917 136.622 468.017 138.277C464.118 139.932 461.854 143.514 462.992 146.196Z" fill="#E3F0FF"/>
<path d="M508.317 119.613C509.457 122.303 513.56 123.128 517.46 121.473C521.359 119.818 523.632 116.287 522.494 113.553C521.355 110.818 517.251 110.037 513.351 111.692C509.452 113.348 507.176 116.914 508.317 119.613Z" fill="#E3F0FF"/>
<path d="M534.773 93.095C535.912 95.777 540.016 96.6104 543.916 94.9551C547.815 93.2998 550.087 89.761 548.95 87.0347C547.813 84.3083 543.707 83.5193 539.807 85.1746C535.908 86.8299 533.651 90.4015 534.773 93.095Z" fill="#E3F0FF"/>
<path d="M428.952 153.252C430.092 155.943 427.836 159.47 423.911 161.13C419.985 162.79 415.891 161.963 414.768 159.27C413.646 156.576 415.876 153.053 419.801 151.394C423.726 149.734 427.812 150.562 428.952 153.252Z" fill="#E3F0FF"/>
<path d="M391.509 153.842C392.649 156.532 390.393 160.06 386.484 161.761C382.575 163.462 378.456 162.596 377.342 159.901C376.228 157.206 378.459 153.691 382.383 152.023C386.307 150.355 390.37 151.151 391.509 153.842Z" fill="#E3F0FF"/>
<path d="M559.971 113.774L560.498 113.551L557.525 106.541L505.138 103.616L505.112 104.185L557.134 107.094L559.971 113.774Z" fill="#D4E4F9"/>
<path d="M500.165 92.1928L541.384 74.7123L539.524 74.8803L499.942 91.6661L500.165 92.1928Z" fill="#D4E4F9"/>
<path d="M506.893 148.772L507.42 148.549L504.44 141.602L480.473 120.191L480.088 120.619L504.011 141.985L506.893 148.772Z" fill="#D4E4F9"/>
<path d="M385.524 187.752L386.051 187.53L383.222 180.848L417.3 141.426L416.867 141.059L382.551 180.742L385.524 187.752Z" fill="#D4E4F9"/>
<path d="M371.299 146.834L412.116 129.528L411.893 129.001L372.714 145.612L371.299 146.834Z" fill="#D4E4F9"/>
<path d="M447.579 173.918L448.106 173.695L445.224 166.908L446.502 134.861L445.926 134.845L444.651 167.015L447.579 173.918Z" fill="#D4E4F9"/>
<path d="M426.545 35.9397L436.645 59.7632L435.068 60.432L424.967 36.6086L426.545 35.9397Z" fill="#1F3B80"/>
<path d="M422.129 37.286C422.414 37.9593 422.893 38.533 423.504 38.9343C424.115 39.3357 424.832 39.5468 425.563 39.5409C426.294 39.535 427.007 39.3124 427.612 38.9012C428.216 38.49 428.685 37.9086 428.96 37.2308C429.234 36.5529 429.301 35.8089 429.152 35.093C429.004 34.377 428.646 33.7212 428.125 33.2085C427.603 32.6959 426.941 32.3493 426.223 32.2128C425.505 32.0763 424.762 32.1559 424.089 32.4416C423.187 32.8244 422.474 33.5497 422.106 34.4581C421.739 35.3665 421.747 36.3836 422.129 37.286Z" fill="#1F3B80"/>
<path d="M443.429 115.408C453.993 110.927 462.483 102.634 467.212 92.179C471.941 81.7238 472.562 69.8718 468.951 58.9798C475.267 61.1451 481.056 64.6176 485.94 69.1707C490.824 73.7239 494.694 79.2554 497.296 85.4046L504.104 101.474C493.223 110.394 479.04 118.997 462.767 125.902C446.493 132.806 430.462 137.048 416.456 138.641L409.649 122.571C408.63 120.17 407.81 117.69 407.198 115.155C412.899 117.672 419.055 118.994 425.287 119.037C431.519 119.081 437.694 117.846 443.429 115.408Z" fill="#70A5F2"/>
<path d="M458.201 115.145C474.485 108.248 488.665 99.6806 499.549 90.7243L501.513 95.3476L501.662 95.7016L503.035 98.9345L503.618 100.326L505.114 103.918C494.225 112.84 480.05 121.441 463.767 128.338C447.484 135.235 431.471 139.483 417.465 141.076L415.969 137.484L415.379 136.103L414.013 132.86L413.864 132.506L411.9 127.882C425.905 126.29 441.919 122.051 458.201 115.145Z" fill="#346EE3"/>
<path d="M491.794 96.7735L497.363 109.906L496.834 110.131L491.266 96.9976L491.794 96.7735Z" fill="#D4E4F9"/>
<path d="M478.539 105.645L484.107 118.778L483.579 119.002L478.011 105.869L478.539 105.645Z" fill="#D4E4F9"/>
<path d="M421.524 126.572L427.092 139.705L426.563 139.929L420.995 126.797L421.524 126.572Z" fill="#D4E4F9"/>
<path d="M437.116 123.206L442.684 136.339L442.155 136.563L436.587 123.431L437.116 123.206Z" fill="#D4E4F9"/>
<path d="M459.315 114.719L464.883 127.852L464.354 128.076L458.786 114.943L459.315 114.719Z" fill="#D4E4F9"/>
<path d="M448.983 162.319C449.085 162.275 449.173 162.201 449.234 162.108C449.295 162.014 449.326 161.905 449.325 161.793L449.442 137.868C449.445 137.793 449.432 137.718 449.404 137.647C449.377 137.577 449.335 137.513 449.282 137.46C449.229 137.406 449.166 137.364 449.096 137.335C449.027 137.307 448.952 137.293 448.876 137.294C448.726 137.294 448.581 137.353 448.473 137.459C448.366 137.565 448.305 137.709 448.302 137.86L448.185 161.785C448.183 161.86 448.196 161.935 448.224 162.005C448.251 162.075 448.293 162.139 448.346 162.193C448.398 162.247 448.462 162.289 448.531 162.317C448.601 162.346 448.676 162.36 448.751 162.359C448.83 162.363 448.91 162.349 448.983 162.319Z" fill="#70A5F2"/>
<path d="M392.184 175.206C392.269 175.171 392.345 175.115 392.404 175.045L416.711 145.977C416.79 145.859 416.822 145.716 416.802 145.576C416.782 145.436 416.711 145.308 416.602 145.217C416.494 145.126 416.355 145.079 416.214 145.084C416.072 145.089 415.937 145.146 415.835 145.244L391.52 174.314C391.423 174.431 391.377 174.582 391.391 174.733C391.405 174.885 391.479 175.024 391.596 175.121C391.678 175.187 391.775 175.229 391.879 175.244C391.982 175.259 392.088 175.246 392.184 175.206Z" fill="#70A5F2"/>
<path d="M504.312 138.007C504.397 137.972 504.472 137.917 504.531 137.846C504.627 137.731 504.674 137.582 504.661 137.432C504.649 137.283 504.578 137.144 504.465 137.046L485.111 120.625C485.055 120.567 484.988 120.522 484.913 120.491C484.838 120.461 484.758 120.447 484.677 120.45C484.597 120.453 484.518 120.472 484.446 120.508C484.373 120.543 484.309 120.593 484.257 120.655C484.206 120.717 484.167 120.789 484.145 120.866C484.123 120.944 484.118 121.025 484.129 121.105C484.141 121.185 484.169 121.261 484.212 121.329C484.255 121.397 484.311 121.456 484.378 121.501L503.722 137.914C503.802 137.982 503.9 138.027 504.004 138.043C504.108 138.06 504.214 138.047 504.312 138.007Z" fill="#70A5F2"/>
<path d="M556.036 103.764C556.158 103.715 556.259 103.625 556.323 103.511C556.387 103.396 556.409 103.264 556.387 103.134C556.365 103.005 556.299 102.887 556.201 102.801C556.103 102.714 555.978 102.663 555.847 102.658L508.956 100.857C508.804 100.851 508.656 100.906 508.545 101.01C508.433 101.113 508.368 101.256 508.362 101.408C508.358 101.483 508.369 101.558 508.394 101.629C508.419 101.699 508.458 101.764 508.509 101.82C508.559 101.875 508.62 101.92 508.688 101.952C508.756 101.983 508.83 102.001 508.905 102.004L555.753 103.812C555.85 103.82 555.947 103.803 556.036 103.764Z" fill="#70A5F2"/>
<path d="M505.356 92.8839L541.615 77.5136C541.745 77.4539 541.847 77.3473 541.902 77.2152C541.956 77.0832 541.958 76.9354 541.908 76.8017C541.849 76.6624 541.737 76.5523 541.596 76.4953C541.456 76.4383 541.299 76.4391 541.159 76.4974L504.908 91.8662C504.771 91.9275 504.662 92.0398 504.605 92.1795C504.548 92.3192 504.548 92.4754 504.604 92.6154C504.668 92.7505 504.784 92.8547 504.924 92.905C505.065 92.9553 505.221 92.9477 505.356 92.8839Z" fill="#70A5F2"/>
<path d="M373.439 148.858L409.688 133.48C409.757 133.451 409.819 133.409 409.871 133.356C409.924 133.303 409.965 133.24 409.993 133.171C410.021 133.102 410.035 133.028 410.034 132.953C410.034 132.879 410.018 132.805 409.989 132.736C409.96 132.668 409.918 132.606 409.864 132.553C409.811 132.501 409.748 132.46 409.679 132.432C409.61 132.404 409.536 132.39 409.462 132.391C409.387 132.391 409.314 132.407 409.245 132.436L372.994 147.804C372.918 147.829 372.848 147.869 372.789 147.921C372.729 147.974 372.681 148.039 372.648 148.111C372.614 148.184 372.596 148.263 372.595 148.342C372.594 148.422 372.609 148.501 372.64 148.574C372.671 148.648 372.717 148.714 372.775 148.769C372.833 148.824 372.902 148.866 372.977 148.892C373.052 148.919 373.132 148.93 373.212 148.924C373.291 148.918 373.369 148.895 373.439 148.858Z" fill="#70A5F2"/>
<path d="M560.602 277.885L560.544 292.01L494.982 291.742L494.152 280.801L532.335 220.769L546.648 220.828L531.042 246.702L512.04 277.687L560.602 277.885ZM550.523 220.844L550.15 311.843L532.151 311.769L532.523 220.77L550.523 220.844ZM631.681 258.676L631.617 274.426C631.589 281.259 630.835 287.152 629.357 292.104C627.878 297.015 625.758 301.048 622.995 304.203C620.274 307.317 617.035 309.616 613.279 311.101C609.523 312.586 605.353 313.319 600.77 313.3C597.103 313.285 593.689 312.813 590.526 311.883C587.363 310.912 584.515 309.421 581.981 307.41C579.49 305.4 577.333 302.871 575.512 299.821C573.733 296.731 572.373 293.059 571.432 288.805C570.491 284.551 570.032 279.674 570.055 274.174L570.119 258.424C570.147 251.591 570.9 245.74 572.378 240.871C573.898 235.96 576.019 231.948 578.74 228.834C581.503 225.72 584.762 223.442 588.518 221.999C592.274 220.514 596.444 219.781 601.027 219.8C604.694 219.815 608.088 220.308 611.209 221.279C614.372 222.209 617.22 223.658 619.754 225.627C622.287 227.595 624.444 230.125 626.223 233.216C628.002 236.265 629.362 239.916 630.303 244.17C631.244 248.382 631.703 253.217 631.681 258.676ZM613.545 276.727L613.629 256.164C613.642 252.873 613.466 249.997 613.101 247.537C612.778 245.078 612.266 242.992 611.565 241.281C610.863 239.528 609.994 238.108 608.957 237.02C607.92 235.933 606.735 235.136 605.404 234.631C604.073 234.125 602.595 233.869 600.97 233.862C598.928 233.854 597.114 234.243 595.527 235.028C593.983 235.813 592.665 237.079 591.574 238.824C590.484 240.528 589.641 242.816 589.046 245.689C588.493 248.52 588.208 251.977 588.191 256.06L588.107 276.623C588.094 279.914 588.249 282.811 588.572 285.312C588.937 287.814 589.469 289.962 590.17 291.756C590.913 293.509 591.782 294.95 592.778 296.08C593.815 297.167 594.999 297.964 596.331 298.469C597.703 298.975 599.202 299.231 600.827 299.237C602.827 299.246 604.6 298.857 606.145 298.072C607.731 297.245 609.07 295.959 610.161 294.213C611.293 292.426 612.136 290.096 612.689 287.223C613.243 284.351 613.528 280.852 613.545 276.727ZM707.601 278.486L707.543 292.611L641.981 292.343L641.151 281.402L679.334 221.37L693.646 221.429L678.04 247.303L659.039 278.288L707.601 278.486ZM697.521 221.445L697.149 312.444L679.149 312.37L679.521 221.371L697.521 221.445Z" fill="#2065E2"/>
<path d="M306.577 460C304.833 458.15 304.926 455.254 306.766 453.499C310.823 449.626 313.357 444.168 313.381 438.122C313.419 428.967 307.708 421.135 299.639 418.043C297.779 417.327 296.581 415.499 296.711 413.515C296.808 412.067 296.753 410.568 296.526 409.048C295.098 399.299 287.037 391.63 277.217 390.8C264.592 389.725 253.989 399.627 253.938 412.043C253.936 412.448 253.945 412.843 253.963 413.239C254.066 415.264 252.894 417.143 250.997 417.855C242.903 420.88 237.129 428.665 237.091 437.82C237.067 443.876 239.556 449.345 243.581 453.251C245.407 455.02 245.476 457.917 243.716 459.753C238 465.705 234.546 473.307 234.512 481.611C234.434 500.772 252.529 516.372 274.92 516.463C297.312 516.555 315.534 501.104 315.612 481.943C315.636 473.628 312.255 465.999 306.577 460Z" fill="#4281E8"/>
<path d="M272.17 540.281C271.907 540.28 271.695 540.067 271.696 539.803L272.276 397.949C272.278 397.685 272.491 397.474 272.754 397.475C273.018 397.476 273.229 397.689 273.228 397.953L272.648 539.807C272.647 540.071 272.434 540.282 272.17 540.281Z" fill="#70A5F2"/>
<path d="M272.659 419.551C272.538 419.551 272.416 419.5 272.325 419.408C272.144 419.225 272.145 418.921 272.328 418.73L288.273 402.925C288.456 402.743 288.76 402.745 288.951 402.928C289.133 403.111 289.132 403.415 288.949 403.606L273.004 419.421C272.902 419.502 272.781 419.552 272.659 419.551Z" fill="#70A5F2"/>
<path d="M272.471 465.479C272.35 465.479 272.228 465.428 272.138 465.336C271.956 465.153 271.957 464.849 272.14 464.658L299.891 437.133C300.074 436.951 300.378 436.953 300.57 437.136C300.751 437.319 300.75 437.623 300.567 437.814L272.816 465.339C272.714 465.43 272.593 465.48 272.471 465.479Z" fill="#70A5F2"/>
<path d="M303.414 447.681L290.471 447.628C290.208 447.627 289.996 447.414 289.997 447.151C289.998 446.887 290.212 446.675 290.475 446.677L303.418 446.729C303.681 446.731 303.893 446.944 303.892 447.207C303.891 447.471 303.688 447.683 303.414 447.681Z" fill="#70A5F2"/>
<path d="M272.527 452.72C272.406 452.72 272.284 452.669 272.194 452.577L255.431 435.677C255.249 435.493 255.25 435.19 255.433 434.998C255.616 434.816 255.92 434.818 256.112 435.001L272.875 451.901C273.056 452.084 273.055 452.388 272.872 452.58C272.77 452.681 272.649 452.721 272.527 452.72Z" fill="#70A5F2"/>
<path d="M272.714 408.747C272.592 408.746 272.471 408.695 272.38 408.604L266.429 402.604C266.248 402.421 266.249 402.117 266.432 401.925C266.615 401.744 266.919 401.745 267.111 401.928L273.061 407.928C273.243 408.111 273.242 408.415 273.058 408.606C272.957 408.707 272.835 408.747 272.714 408.747Z" fill="#70A5F2"/>
<path d="M272.402 482.394C272.281 482.393 272.159 482.342 272.068 482.251C271.887 482.068 271.888 481.764 272.071 481.572L294.3 459.524C294.483 459.343 294.787 459.344 294.979 459.527C295.16 459.71 295.159 460.014 294.976 460.206L272.747 482.254C272.645 482.354 272.524 482.394 272.402 482.394Z" fill="#70A5F2"/>
<path d="M272.315 503.65C272.194 503.65 272.072 503.598 271.981 503.507C271.8 503.324 271.801 503.02 271.984 502.828L294.173 480.821C294.356 480.639 294.66 480.64 294.851 480.824C295.033 481.007 295.031 481.31 294.848 481.502L272.66 503.51C272.558 503.611 272.437 503.651 272.315 503.65Z" fill="#70A5F2"/>
<path d="M304.345 494.818L281.325 494.724C281.062 494.723 280.85 494.51 280.851 494.246C280.853 493.983 281.066 493.771 281.329 493.772L304.349 493.866C304.612 493.868 304.824 494.081 304.823 494.344C304.822 494.608 304.608 494.82 304.345 494.818Z" fill="#70A5F2"/>
<path d="M272.242 492.358C272.12 492.357 271.999 492.306 271.908 492.215L252.704 472.853C252.523 472.67 252.524 472.366 252.707 472.175C252.89 471.993 253.194 471.994 253.386 472.177L272.589 491.539C272.771 491.722 272.77 492.026 272.587 492.217C272.485 492.318 272.363 492.358 272.242 492.358Z" fill="#70A5F2"/>
<path d="M177.569 411.081C174.775 408.117 174.924 403.479 177.871 400.668C184.369 394.466 188.427 385.723 188.467 376.039C188.527 361.375 179.381 348.831 166.456 343.879C163.476 342.731 161.558 339.804 161.766 336.625C161.921 334.306 161.834 331.905 161.47 329.47C159.182 313.856 146.272 301.572 130.542 300.243C110.321 298.522 93.3374 314.382 93.2561 334.269C93.2534 334.917 93.2671 335.55 93.2969 336.183C93.4621 339.428 91.5843 342.437 88.5463 343.577C75.5818 348.423 66.3333 360.891 66.2733 375.555C66.2336 385.256 70.2207 394.015 76.6675 400.271C79.5919 403.105 79.7027 407.745 76.8844 410.686C67.729 420.219 62.1964 432.395 62.142 445.696C62.0165 476.386 90.9992 501.372 126.864 501.519C162.729 501.666 191.915 476.917 192.041 446.227C192.079 432.91 186.662 420.689 177.569 411.081Z" fill="#4281E8"/>
<path d="M122.466 539.671C122.044 539.67 121.705 539.328 121.707 538.906L122.636 311.697C122.638 311.275 122.98 310.936 123.401 310.937C123.823 310.939 124.162 311.281 124.161 311.703L123.231 538.912C123.23 539.334 122.888 539.673 122.466 539.671Z" fill="#70A5F2"/>
<path d="M123.256 346.299C123.062 346.298 122.867 346.216 122.722 346.07C122.431 345.776 122.433 345.29 122.726 344.983L148.265 319.668C148.558 319.377 149.045 319.379 149.352 319.673C149.643 319.966 149.641 320.453 149.347 320.76L123.809 346.09C123.646 346.219 123.451 346.3 123.256 346.299Z" fill="#70A5F2"/>
<path d="M122.956 419.862C122.761 419.861 122.567 419.779 122.421 419.633C122.13 419.34 122.132 418.853 122.426 418.546L166.874 374.46C167.167 374.169 167.654 374.171 167.961 374.464C168.252 374.757 168.25 375.244 167.956 375.551L123.508 419.637C123.345 419.783 123.15 419.863 122.956 419.862Z" fill="#70A5F2"/>
<path d="M172.515 391.351L151.784 391.266C151.362 391.265 151.023 390.923 151.025 390.501C151.026 390.079 151.368 389.74 151.79 389.742L172.521 389.826C172.943 389.828 173.282 390.17 173.28 390.592C173.278 391.014 172.953 391.353 172.515 391.351Z" fill="#70A5F2"/>
<path d="M123.05 399.421C122.855 399.421 122.661 399.339 122.515 399.192L95.666 372.122C95.3753 371.829 95.3772 371.343 95.6705 371.036C95.9637 370.745 96.4503 370.747 96.7573 371.04L123.607 398.11C123.897 398.403 123.895 398.89 123.602 399.197C123.439 399.358 123.244 399.422 123.05 399.421Z" fill="#70A5F2"/>
<path d="M123.335 328.99C123.141 328.989 122.946 328.907 122.801 328.761L113.27 319.151C112.979 318.858 112.981 318.371 113.274 318.064C113.567 317.773 114.054 317.775 114.361 318.069L123.892 327.678C124.183 327.971 124.181 328.458 123.888 328.765C123.725 328.927 123.53 328.991 123.335 328.99Z" fill="#70A5F2"/>
<path d="M122.845 446.952C122.65 446.951 122.456 446.87 122.31 446.723C122.02 446.43 122.022 445.943 122.315 445.636L157.919 410.322C158.212 410.031 158.699 410.033 159.006 410.326C159.297 410.619 159.295 411.106 159.002 411.413L123.397 446.727C123.234 446.889 123.039 446.953 122.845 446.952Z" fill="#70A5F2"/>
<path d="M122.706 480.996C122.511 480.996 122.317 480.914 122.171 480.767C121.88 480.474 121.882 479.987 122.176 479.68L157.715 444.431C158.008 444.14 158.495 444.142 158.802 444.435C159.092 444.728 159.09 445.215 158.797 445.522L123.258 480.772C123.095 480.933 122.9 480.997 122.706 480.996Z" fill="#70A5F2"/>
<path d="M174.018 466.854L137.147 466.703C136.725 466.701 136.386 466.359 136.388 465.938C136.39 465.516 136.732 465.177 137.153 465.178L174.024 465.329C174.446 465.331 174.785 465.673 174.783 466.095C174.782 466.516 174.44 466.856 174.018 466.854Z" fill="#70A5F2"/>
<path d="M122.583 462.912C122.388 462.911 122.194 462.829 122.048 462.683L91.2896 431.671C90.9988 431.378 91.0008 430.892 91.2941 430.585C91.5873 430.294 92.0739 430.296 92.3809 430.589L123.14 461.6C123.43 461.894 123.428 462.38 123.135 462.687C122.972 462.849 122.777 462.913 122.583 462.912Z" fill="#70A5F2"/>
</svg>
